<?xml version="1.0" standalone="no"?>
<!DOCTYPE svg PUBLIC "-//W3C//DTD SVG 1.1//EN" "http://www.w3.org/Graphics/SVG/1.1/DTD/svg11.dtd">
<svg width="324" height="324" version="1.1" xmlns="http://www.w3.org/2000/svg">
  <title>20 by 20 orthogonal maze</title>
  <desc>20 by 20 orthogonal maze generated by The Maze Generator Website (http://www.mazegenerator.net/).</desc>
  <g fill="none" stroke="#000000" stroke-width="2" stroke-linecap="square">
    <line x1="2" y1="2" x2="146" y2="2" />
    <line x1="162" y1="2" x2="322" y2="2" />
    <line x1="18" y1="18" x2="66" y2="18" />
    <line x1="98" y1="18" x2="114" y2="18" />
    <line x1="130" y1="18" x2="162" y2="18" />
    <line x1="178" y1="18" x2="210" y2="18" />
    <line x1="242" y1="18" x2="274" y2="18" />
    <line x1="290" y1="18" x2="306" y2="18" />
    <line x1="34" y1="34" x2="50" y2="34" />
    <line x1="66" y1="34" x2="130" y2="34" />
    <line x1="162" y1="34" x2="178" y2="34" />
    <line x1="210" y1="34" x2="258" y2="34" />
    <line x1="274" y1="34" x2="290" y2="34" />
    <line x1="18" y1="50" x2="34" y2="50" />
    <line x1="50" y1="50" x2="66" y2="50" />
    <line x1="98" y1="50" x2="114" y2="50" />
    <line x1="146" y1="50" x2="162" y2="50" />
    <line x1="178" y1="50" x2="210" y2="50" />
    <line x1="226" y1="50" x2="242" y2="50" />
    <line x1="258" y1="50" x2="274" y2="50" />
    <line x1="2" y1="66" x2="18" y2="66" />
    <line x1="114" y1="66" x2="130" y2="66" />
    <line x1="162" y1="66" x2="178" y2="66" />
    <line x1="210" y1="66" x2="242" y2="66" />
    <line x1="2" y1="82" x2="82" y2="82" />
    <line x1="178" y1="82" x2="226" y2="82" />
    <line x1="258" y1="82" x2="306" y2="82" />
    <line x1="18" y1="98" x2="66" y2="98" />
    <line x1="226" y1="98" x2="242" y2="98" />
    <line x1="274" y1="98" x2="322" y2="98" />
    <line x1="2" y1="114" x2="34" y2="114" />
    <line x1="66" y1="114" x2="146" y2="114" />
    <line x1="162" y1="114" x2="194" y2="114" />
    <line x1="210" y1="114" x2="306" y2="114" />
    <line x1="82" y1="130" x2="98" y2="130" />
    <line x1="242" y1="130" x2="306" y2="130" />
    <line x1="2" y1="146" x2="18" y2="146" />
    <line x1="34" y1="146" x2="82" y2="146" />
    <line x1="114" y1="146" x2="162" y2="146" />
    <line x1="178" y1="146" x2="258" y2="146" />
    <line x1="306" y1="146" x2="322" y2="146" />
    <line x1="18" y1="162" x2="50" y2="162" />
    <line x1="98" y1="162" x2="146" y2="162" />
    <line x1="162" y1="162" x2="178" y2="162" />
    <line x1="274" y1="162" x2="306" y2="162" />
    <line x1="2" y1="178" x2="34" y2="178" />
    <line x1="82" y1="178" x2="114" y2="178" />
    <line x1="130" y1="178" x2="162" y2="178" />
    <line x1="178" y1="178" x2="194" y2="178" />
    <line x1="210" y1="178" x2="242" y2="178" />
    <line x1="306" y1="178" x2="322" y2="178" />
    <line x1="34" y1="194" x2="50" y2="194" />
    <line x1="114" y1="194" x2="130" y2="194" />
    <line x1="162" y1="194" x2="226" y2="194" />
    <line x1="242" y1="194" x2="274" y2="194" />
    <line x1="290" y1="194" x2="306" y2="194" />
    <line x1="98" y1="210" x2="130" y2="210" />
    <line x1="146" y1="210" x2="162" y2="210" />
    <line x1="178" y1="210" x2="194" y2="210" />
    <line x1="226" y1="210" x2="258" y2="210" />
    <line x1="18" y1="226" x2="66" y2="226" />
    <line x1="130" y1="226" x2="146" y2="226" />
    <line x1="162" y1="226" x2="242" y2="226" />
    <line x1="274" y1="226" x2="290" y2="226" />
    <line x1="18" y1="242" x2="50" y2="242" />
    <line x1="66" y1="242" x2="98" y2="242" />
    <line x1="114" y1="242" x2="130" y2="242" />
    <line x1="146" y1="242" x2="178" y2="242" />
    <line x1="258" y1="242" x2="274" y2="242" />
    <line x1="290" y1="242" x2="322" y2="242" />
    <line x1="2" y1="258" x2="18" y2="258" />
    <line x1="50" y1="258" x2="66" y2="258" />
    <line x1="98" y1="258" x2="146" y2="258" />
    <line x1="178" y1="258" x2="194" y2="258" />
    <line x1="210" y1="258" x2="258" y2="258" />
    <line x1="290" y1="258" x2="306" y2="258" />
    <line x1="18" y1="274" x2="178" y2="274" />
    <line x1="226" y1="274" x2="242" y2="274" />
    <line x1="258" y1="274" x2="290" y2="274" />
    <line x1="18" y1="290" x2="34" y2="290" />
    <line x1="50" y1="290" x2="130" y2="290" />
    <line x1="146" y1="290" x2="194" y2="290" />
    <line x1="274" y1="290" x2="322" y2="290" />
    <line x1="2" y1="306" x2="18" y2="306" />
    <line x1="50" y1="306" x2="98" y2="306" />
    <line x1="130" y1="306" x2="146" y2="306" />
    <line x1="242" y1="306" x2="274" y2="306" />
    <line x1="2" y1="322" x2="162" y2="322" />
    <line x1="178" y1="322" x2="322" y2="322" />
    <line x1="2" y1="2" x2="2" y2="322" />
    <line x1="18" y1="18" x2="18" y2="50" />
    <line x1="18" y1="130" x2="18" y2="146" />
    <line x1="18" y1="194" x2="18" y2="226" />
    <line x1="18" y1="274" x2="18" y2="290" />
    <line x1="34" y1="50" x2="34" y2="82" />
    <line x1="34" y1="114" x2="34" y2="130" />
    <line x1="34" y1="178" x2="34" y2="210" />
    <line x1="34" y1="242" x2="34" y2="274" />
    <line x1="34" y1="290" x2="34" y2="306" />
    <line x1="50" y1="18" x2="50" y2="34" />
    <line x1="50" y1="50" x2="50" y2="66" />
    <line x1="50" y1="98" x2="50" y2="178" />
    <line x1="50" y1="194" x2="50" y2="210" />
    <line x1="50" y1="226" x2="50" y2="242" />
    <line x1="50" y1="306" x2="50" y2="322" />
    <line x1="66" y1="34" x2="66" y2="66" />
    <line x1="66" y1="114" x2="66" y2="130" />
    <line x1="66" y1="162" x2="66" y2="226" />
    <line x1="66" y1="242" x2="66" y2="258" />
    <line x1="82" y1="18" x2="82" y2="34" />
    <line x1="82" y1="50" x2="82" y2="114" />
    <line x1="82" y1="130" x2="82" y2="242" />
    <line x1="82" y1="258" x2="82" y2="274" />
    <line x1="98" y1="2" x2="98" y2="18" />
    <line x1="98" y1="34" x2="98" y2="98" />
    <line x1="98" y1="130" x2="98" y2="162" />
    <line x1="98" y1="194" x2="98" y2="210" />
    <line x1="98" y1="226" x2="98" y2="258" />
    <line x1="114" y1="66" x2="114" y2="146" />
    <line x1="114" y1="210" x2="114" y2="242" />
    <line x1="114" y1="290" x2="114" y2="322" />
    <line x1="130" y1="18" x2="130" y2="34" />
    <line x1="130" y1="50" x2="130" y2="98" />
    <line x1="130" y1="130" x2="130" y2="146" />
    <line x1="130" y1="178" x2="130" y2="194" />
    <line x1="130" y1="210" x2="130" y2="226" />
    <line x1="130" y1="274" x2="130" y2="290" />
    <line x1="146" y1="34" x2="146" y2="130" />
    <line x1="146" y1="162" x2="146" y2="178" />
    <line x1="146" y1="194" x2="146" y2="210" />
    <line x1="146" y1="226" x2="146" y2="258" />
    <line x1="146" y1="290" x2="146" y2="306" />
    <line x1="162" y1="18" x2="162" y2="34" />
    <line x1="162" y1="66" x2="162" y2="82" />
    <line x1="162" y1="98" x2="162" y2="162" />
    <line x1="162" y1="178" x2="162" y2="194" />
    <line x1="162" y1="210" x2="162" y2="226" />
    <line x1="162" y1="258" x2="162" y2="274" />
    <line x1="162" y1="306" x2="162" y2="322" />
    <line x1="178" y1="2" x2="178" y2="34" />
    <line x1="178" y1="50" x2="178" y2="66" />
    <line x1="178" y1="82" x2="178" y2="98" />
    <line x1="178" y1="130" x2="178" y2="146" />
    <line x1="178" y1="162" x2="178" y2="178" />
    <line x1="178" y1="194" x2="178" y2="210" />
    <line x1="178" y1="242" x2="178" y2="258" />
    <line x1="178" y1="290" x2="178" y2="322" />
    <line x1="194" y1="34" x2="194" y2="66" />
    <line x1="194" y1="98" x2="194" y2="130" />
    <line x1="194" y1="146" x2="194" y2="178" />
    <line x1="194" y1="226" x2="194" y2="306" />
    <line x1="210" y1="18" x2="210" y2="50" />
    <line x1="210" y1="66" x2="210" y2="114" />
    <line x1="210" y1="130" x2="210" y2="146" />
    <line x1="210" y1="162" x2="210" y2="194" />
    <line x1="210" y1="210" x2="210" y2="242" />
    <line x1="210" y1="258" x2="210" y2="306" />
    <line x1="226" y1="2" x2="226" y2="18" />
    <line x1="226" y1="50" x2="226" y2="66" />
    <line x1="226" y1="114" x2="226" y2="130" />
    <line x1="226" y1="146" x2="226" y2="162" />
    <line x1="226" y1="242" x2="226" y2="258" />
    <line x1="226" y1="274" x2="226" y2="322" />
    <line x1="242" y1="66" x2="242" y2="98" />
    <line x1="242" y1="162" x2="242" y2="194" />
    <line x1="242" y1="242" x2="242" y2="258" />
    <line x1="242" y1="290" x2="242" y2="306" />
    <line x1="258" y1="66" x2="258" y2="114" />
    <line x1="258" y1="130" x2="258" y2="178" />
    <line x1="258" y1="210" x2="258" y2="242" />
    <line x1="258" y1="258" x2="258" y2="306" />
    <line x1="274" y1="18" x2="274" y2="66" />
    <line x1="274" y1="146" x2="274" y2="162" />
    <line x1="274" y1="178" x2="274" y2="274" />
    <line x1="290" y1="2" x2="290" y2="18" />
    <line x1="290" y1="34" x2="290" y2="82" />
    <line x1="290" y1="130" x2="290" y2="146" />
    <line x1="290" y1="162" x2="290" y2="194" />
    <line x1="290" y1="210" x2="290" y2="226" />
    <line x1="290" y1="290" x2="290" y2="306" />
    <line x1="306" y1="18" x2="306" y2="50" />
    <line x1="306" y1="66" x2="306" y2="82" />
    <line x1="306" y1="114" x2="306" y2="130" />
    <line x1="306" y1="146" x2="306" y2="162" />
    <line x1="306" y1="194" x2="306" y2="226" />
    <line x1="306" y1="258" x2="306" y2="290" />
    <line x1="306" y1="306" x2="306" y2="322" />
    <line x1="322" y1="2" x2="322" y2="322" />
  </g>
  <polyline fill="none" stroke="#ff0000" stroke-width="2" stroke-linecap="square" stroke-linejoin="round" points="154,2 154,10 122,10 122,26 90,26 90,10 74,10 74,26 58,26 58,42 42,42 42,74 74,74 74,42 90,42 90,106 106,106 106,58 122,58 122,42 138,42 138,26 154,26 154,42 170,42 170,58 154,58 154,90 170,90 170,74 202,74 202,58 218,58 218,42 266,42 266,26 234,26 234,10 282,10 282,26 298,26 298,58 314,58 314,90 266,90 266,106 314,106 314,138 298,138 298,154 282,154 282,138 266,138 266,186 250,186 250,154 234,154 234,170 218,170 218,154 202,154 202,186 170,186 170,170 154,170 154,154 106,154 106,122 74,122 74,138 58,138 58,106 74,106 74,90 10,90 10,106 42,106 42,138 26,138 26,154 10,154 10,170 42,170 42,186 58,186 58,154 74,154 74,234 58,234 58,250 42,250 42,266 74,266 74,250 90,250 90,266 154,266 154,250 170,250 170,266 186,266 186,282 138,282 138,298 122,298 122,314 154,314 154,298 170,298 170,322" />
</svg>
